<svg width="20" height="20" viewBox="0 0 20 20" fill="none" xmlns="http://www.w3.org/2000/svg">
<path d="M10.5439 0.899973L10.5445 0.901419L12.7772 6.06939L12.8853 6.3197L13.1543 6.36435L18.1426 7.19225C18.1427 7.19227 18.1428 7.1923 18.143 7.19232C18.345 7.22661 18.5526 7.39581 18.6384 7.68778C18.7239 7.97891 18.649 8.29313 18.472 8.48987L18.4719 8.49007L14.8538 12.5174L14.6962 12.6929L14.7313 12.9261L15.5888 18.6162C15.5888 18.6164 15.5888 18.6166 15.5889 18.6168C15.6343 18.9249 15.516 19.2173 15.3189 19.3786C15.1385 19.5262 14.9126 19.5412 14.718 19.4261C14.7177 19.4259 14.7174 19.4257 14.7171 19.4255L10.2645 16.7511L10.007 16.5964L9.74956 16.7511L5.29688 19.4255C5.29657 19.4257 5.29627 19.4259 5.29597 19.4261C5.10432 19.5394 4.87658 19.525 4.6925 19.3765C4.49946 19.2207 4.37934 18.9268 4.42516 18.6166C4.42518 18.6165 4.4252 18.6164 4.42522 18.6162L5.27925 12.9258L5.31422 12.6927L5.15673 12.5174L1.53868 8.49007L1.5385 8.48987C1.3634 8.29518 1.28847 7.98044 1.37315 7.68436C1.45509 7.39784 1.66317 7.22701 1.86753 7.19232C1.86768 7.1923 1.86783 7.19227 1.86798 7.19225L6.85282 6.36434L7.12177 6.31967L7.22989 6.06939L9.4618 0.903097C9.46191 0.902851 9.46202 0.902604 9.46213 0.902358C9.58141 0.629681 9.80209 0.5 10.0035 0.5C10.2073 0.5 10.4291 0.63186 10.5439 0.899973Z" fill="#0D0D0D" stroke="#F2F2F2"/>
</svg>
