<svg width="26" height="24" viewBox="0 0 26 24" fill="none" xmlns="http://www.w3.org/2000/svg">
<path d="M8.05769 2.51732L7.55546 4.0995H3.94808C2.24339 4.0995 0.857422 5.55491 0.857422 7.34501V20.327C0.857422 22.1171 2.24339 23.5725 3.94808 23.5725H22.492C24.1967 23.5725 25.5827 22.1171 25.5827 20.327V7.34501C25.5827 5.55491 24.1967 4.0995 22.492 4.0995H18.8847L18.3824 2.51732C18.0685 1.52339 17.1848 0.854004 16.1852 0.854004H10.255C9.25532 0.854004 8.37159 1.52339 8.05769 2.51732ZM13.2201 8.96776C14.4496 8.96776 15.6288 9.48066 16.4982 10.3936C17.3676 11.3066 17.856 12.5449 17.856 13.836C17.856 15.1271 17.3676 16.3654 16.4982 17.2784C15.6288 18.1914 14.4496 18.7043 13.2201 18.7043C11.9905 18.7043 10.8113 18.1914 9.94192 17.2784C9.0725 16.3654 8.58407 15.1271 8.58407 13.836C8.58407 12.5449 9.0725 11.3066 9.94192 10.3936C10.8113 9.48066 11.9905 8.96776 13.2201 8.96776Z" fill="#F2F2F2"/>
</svg>
