<svg width="30" height="30" viewBox="0 0 30 30" fill="none" xmlns="http://www.w3.org/2000/svg">
<path d="M25.151 24.041C25.151 24.4395 24.9115 24.7266 24.5677 24.7266C24.2135 24.7266 23.9844 24.4219 23.9844 24.041C23.9844 23.6602 24.2135 23.3555 24.5677 23.3555C24.9115 23.3555 25.151 23.6602 25.151 24.041ZM8.96354 23.3555C8.59375 23.3555 8.38021 23.6602 8.38021 24.041C8.38021 24.4219 8.59375 24.7266 8.96354 24.7266C9.30208 24.7266 9.53125 24.4395 9.53125 24.041C9.52604 23.6602 9.30208 23.3555 8.96354 23.3555ZM15.0833 23.3379C14.8021 23.3379 14.6302 23.543 14.5885 23.8477H15.5833C15.5365 23.5137 15.3542 23.3379 15.0833 23.3379ZM20.6979 23.3555C20.3438 23.3555 20.1302 23.6602 20.1302 24.041C20.1302 24.4219 20.3438 24.7266 20.6979 24.7266C21.0521 24.7266 21.2812 24.4395 21.2812 24.041C21.2812 23.6602 21.0521 23.3555 20.6979 23.3555ZM26.2135 24.8848C26.2135 24.9023 26.2292 24.9141 26.2292 24.9492C26.2292 24.9668 26.2135 24.9785 26.2135 25.0137C26.1979 25.0312 26.1979 25.043 26.1875 25.0605C26.1719 25.0781 26.1615 25.0898 26.1302 25.0898C26.1146 25.1074 26.1042 25.1074 26.0729 25.1074C26.0573 25.1074 26.0469 25.1074 26.0156 25.0898C26 25.0898 25.9896 25.0723 25.974 25.0605C25.9583 25.043 25.9479 25.0312 25.9479 25.0137C25.9323 24.9844 25.9323 24.9668 25.9323 24.9492C25.9323 24.9199 25.9323 24.9023 25.9479 24.8848C25.9479 24.8555 25.9635 24.8379 25.974 24.8203C25.9896 24.8027 26 24.8027 26.0156 24.791C26.0417 24.7734 26.0573 24.7734 26.0729 24.7734C26.099 24.7734 26.1146 24.7734 26.1302 24.791C26.1562 24.8086 26.1719 24.8086 26.1875 24.8203C26.2031 24.832 26.1979 24.8555 26.2135 24.8848ZM26.099 24.9668C26.125 24.9668 26.125 24.9492 26.1406 24.9492C26.1562 24.9316 26.1562 24.9199 26.1562 24.9023C26.1562 24.8848 26.1562 24.873 26.1406 24.8555C26.125 24.8555 26.1146 24.8379 26.0833 24.8379H26V25.043H26.0417V24.9609H26.0573L26.1146 25.043H26.1562L26.099 24.9668ZM30 4.74609V25.3711C30 26.9238 28.8802 28.1836 27.5 28.1836H2.5C1.11979 28.1836 0 26.9238 0 25.3711V4.74609C0 3.19336 1.11979 1.93359 2.5 1.93359H27.5C28.8802 1.93359 30 3.19336 30 4.74609ZM3.33333 12.9258C3.33333 17.4082 6.56771 21.041 10.5469 21.041C11.9635 21.041 13.3542 20.5605 14.5312 19.6875C10.7344 16.2129 10.7604 9.65625 14.5312 6.18164C13.3542 5.30273 11.9635 4.82812 10.5469 4.82812C6.56771 4.82227 3.33333 8.46094 3.33333 12.9258ZM15 19.3008C18.6719 16.0781 18.6562 9.79688 15 6.55664C11.3438 9.79688 11.3281 16.084 15 19.3008ZM7.58854 23.7715C7.58854 23.2617 7.29167 22.9277 6.82292 22.9102C6.58333 22.9102 6.32812 22.9922 6.15625 23.291C6.03125 23.0508 5.81771 22.9102 5.52083 22.9102C5.32292 22.9102 5.125 22.9922 4.96875 23.2266V22.9688H4.54167V25.1191H4.96875C4.96875 24.0117 4.83854 23.3496 5.4375 23.3496C5.96875 23.3496 5.86458 23.9473 5.86458 25.1191H6.27604C6.27604 24.0469 6.14583 23.3496 6.74479 23.3496C7.27604 23.3496 7.17187 23.9355 7.17187 25.1191H7.59896V23.7715H7.58854ZM9.92708 22.9688H9.51562V23.2266C9.375 23.0332 9.17708 22.9102 8.90625 22.9102C8.36979 22.9102 7.95833 23.3906 7.95833 24.041C7.95833 24.6973 8.36979 25.1719 8.90625 25.1719C9.17708 25.1719 9.375 25.0605 9.51562 24.8555V25.125H9.92708V22.9688ZM12.0365 24.4688C12.0365 23.5898 10.8438 23.9883 10.8438 23.5781C10.8438 23.2441 11.4635 23.2969 11.8073 23.5137L11.9792 23.1328C11.4896 22.7754 10.4062 22.7812 10.4062 23.6133C10.4062 24.4512 11.599 24.0996 11.599 24.4922C11.599 24.8613 10.8958 24.832 10.5208 24.5391L10.3385 24.9082C10.9219 25.3535 12.0365 25.2598 12.0365 24.4688ZM13.8802 25.0137L13.7656 24.6152C13.5677 24.7383 13.1302 24.873 13.1302 24.375V23.4023H13.8125V22.9688H13.1302V22.3125H12.7031V22.9688H12.3073V23.3965H12.7031V24.375C12.7031 25.4062 13.6042 25.2188 13.8802 25.0137ZM14.5729 24.2285H16.0052C16.0052 23.2793 15.6198 22.9043 15.099 22.9043C14.5469 22.9043 14.151 23.3672 14.151 24.0352C14.151 25.2363 15.3281 25.4355 15.9115 24.8672L15.7135 24.5156C15.3073 24.8906 14.6927 24.8555 14.5729 24.2285ZM17.651 22.9688C17.4115 22.8516 17.0469 22.8633 16.8594 23.2266V22.9688H16.4323V25.1191H16.8594V23.9062C16.8594 23.2266 17.3542 23.3145 17.526 23.4141L17.651 22.9688ZM18.2031 24.041C18.2031 23.373 18.8073 23.1562 19.2812 23.5488L19.4792 23.168C18.875 22.6348 17.776 22.9277 17.776 24.0469C17.776 25.207 18.9427 25.4414 19.4792 24.9258L19.2812 24.5449C18.8021 24.9258 18.2031 24.6973 18.2031 24.041ZM21.6771 22.9688H21.25V23.2266C20.8177 22.582 19.6927 22.9453 19.6927 24.041C19.6927 25.166 20.8594 25.4883 21.25 24.8555V25.125H21.6771V22.9688ZM23.4323 22.9688C23.3073 22.8984 22.8594 22.7988 22.6406 23.2266V22.9688H22.2292V25.1191H22.6406V23.9062C22.6406 23.2617 23.1094 23.3027 23.3073 23.4141L23.4323 22.9688ZM25.5312 22.0957H25.1198V23.2266C24.6927 22.5879 23.5625 22.9277 23.5625 24.041C23.5625 25.1777 24.7344 25.4824 25.1198 24.8555V25.125H25.5312V22.0957ZM25.9271 17.6953V17.9648H25.9688V17.6953H26.0677V17.6484H25.8281V17.6953H25.9271ZM26.2708 24.9492C26.2708 24.9199 26.2708 24.8848 26.2552 24.8555C26.2396 24.8379 26.2292 24.8086 26.2135 24.791C26.1979 24.7734 26.1719 24.7617 26.1562 24.7441C26.1302 24.7441 26.099 24.7266 26.0729 24.7266C26.0573 24.7266 26.0312 24.7441 26 24.7441C25.974 24.7617 25.9583 24.7734 25.9427 24.791C25.9167 24.8086 25.901 24.8379 25.901 24.8555C25.8854 24.8848 25.8854 24.9199 25.8854 24.9492C25.8854 24.9668 25.8854 24.9961 25.901 25.0312C25.901 25.0488 25.9167 25.0781 25.9427 25.0957C25.9583 25.1133 25.9688 25.125 26 25.1426C26.026 25.1602 26.0573 25.1602 26.0729 25.1602C26.099 25.1602 26.1302 25.1602 26.1562 25.1426C26.1719 25.125 26.1979 25.1133 26.2135 25.0957C26.2292 25.0781 26.2396 25.0488 26.2552 25.0312C26.2708 24.9961 26.2708 24.9668 26.2708 24.9492ZM26.4375 17.6426H26.3646L26.2812 17.8477L26.1979 17.6426H26.125V17.959H26.1667V17.7188L26.25 17.9238H26.3073L26.3802 17.7188V17.959H26.4375V17.6426ZM26.6667 12.9258C26.6667 8.46094 23.4323 4.82227 19.4531 4.82227C18.0365 4.82227 16.6458 5.30273 15.4688 6.17578C19.224 9.65039 19.2812 16.2246 15.4688 19.6816C16.6458 20.5605 18.0469 21.0352 19.4531 21.0352C23.4323 21.041 26.6667 17.4082 26.6667 12.9258Z" fill="#F2F2F2"/>
</svg>
