<svg width="30" height="30" viewBox="0 0 30 30" fill="none" xmlns="http://www.w3.org/2000/svg">
<path d="M9.70312 15.1289C9.70312 15.8438 9.19792 16.3887 8.55729 16.3887C8.07812 16.3887 7.72396 16.084 7.72396 15.5098C7.72396 14.7949 8.21875 14.2207 8.85417 14.2207C9.33854 14.2207 9.70312 14.5547 9.70312 15.1289ZM4.19271 12.2871H3.94792C3.86979 12.2871 3.79167 12.3457 3.78125 12.4453L3.55729 14.0098L3.98438 13.9922C4.55729 13.9922 5 13.9043 5.10417 13.1602C5.22396 12.375 4.78125 12.2871 4.19271 12.2871ZM18.9844 12.2871H18.75C18.6562 12.2871 18.5937 12.3457 18.5833 12.4453L18.3646 14.0098L18.7812 13.9922C19.4583 13.9922 19.9271 13.8164 19.9271 12.9375C19.9219 12.3164 19.4271 12.2871 18.9844 12.2871ZM30 4.6875V25.3125C30 26.8652 28.8802 28.125 27.5 28.125H2.5C1.11979 28.125 0 26.8652 0 25.3125V4.6875C0 3.13477 1.11979 1.875 2.5 1.875H27.5C28.8802 1.875 30 3.13477 30 4.6875ZM6.68229 12.6211C6.68229 11.3906 5.83854 10.9805 4.875 10.9805H2.79167C2.66146 10.9805 2.53125 11.0977 2.52083 11.2559L1.66667 17.2383C1.65104 17.3555 1.72917 17.4727 1.83333 17.4727H2.82292C2.96354 17.4727 3.09375 17.3027 3.10938 17.1387L3.34375 15.5801C3.39583 15.1582 4.03125 15.3047 4.28125 15.3047C5.77083 15.3047 6.68229 14.3086 6.68229 12.6211ZM11.0677 13.1367H10.0781C9.88021 13.1367 9.86979 13.459 9.85938 13.6172C9.55729 13.1191 9.11979 13.0312 8.625 13.0312C7.34896 13.0312 6.375 14.291 6.375 15.6797C6.375 16.8223 7.01042 17.5664 8.02604 17.5664C8.49479 17.5664 9.07812 17.2793 9.40625 16.8691C9.38021 16.957 9.35417 17.1445 9.35417 17.2324C9.35417 17.3672 9.40625 17.4668 9.52083 17.4668H10.4167C10.5573 17.4668 10.6771 17.2969 10.7031 17.1328L11.2344 13.3652C11.25 13.2539 11.1719 13.1367 11.0677 13.1367ZM13.1771 18.873L16.4948 13.4473C16.5208 13.418 16.5208 13.3887 16.5208 13.3477C16.5208 13.248 16.4427 13.1426 16.3542 13.1426H15.3542C15.2656 13.1426 15.1719 13.2012 15.1198 13.2891L13.7396 15.5742L13.1667 13.377C13.125 13.248 13.0104 13.1426 12.8802 13.1426H11.9062C11.8177 13.1426 11.7396 13.248 11.7396 13.3477C11.7396 13.418 12.7552 16.6758 12.8438 16.9863C12.7031 17.209 11.776 18.6621 11.776 18.8379C11.776 18.9434 11.8542 19.0254 11.9427 19.0254H12.9427C13.0365 19.0195 13.125 18.9609 13.1771 18.873ZM21.474 12.6211C21.474 11.3906 20.6302 10.9805 19.6667 10.9805H17.599C17.4583 10.9805 17.3281 11.0977 17.3125 11.2559L16.4688 17.2324C16.4583 17.3496 16.5365 17.4668 16.6354 17.4668H17.7031C17.8073 17.4668 17.8854 17.3789 17.9115 17.2793L18.1458 15.5801C18.1979 15.1582 18.8333 15.3047 19.0833 15.3047C20.5625 15.3047 21.474 14.3086 21.474 12.6211ZM25.8594 13.1367H24.8698C24.6719 13.1367 24.6615 13.459 24.6458 13.6172C24.3594 13.1191 23.9167 13.0312 23.4115 13.0312C22.1354 13.0312 21.1615 14.291 21.1615 15.6797C21.1615 16.8223 21.7969 17.5664 22.8125 17.5664C23.2969 17.5664 23.8802 17.2793 24.1927 16.8691C24.1771 16.957 24.1406 17.1445 24.1406 17.2324C24.1406 17.3672 24.1927 17.4668 24.3073 17.4668H25.2083C25.349 17.4668 25.4688 17.2969 25.4948 17.1328L26.026 13.3652C26.0417 13.2539 25.9635 13.1367 25.8594 13.1367ZM28.3333 11.1855C28.3333 11.0684 28.2552 10.9805 28.1667 10.9805H27.2031C27.125 10.9805 27.0469 11.0508 27.0365 11.1387L26.1927 17.2324L26.1771 17.2617C26.1771 17.3672 26.2552 17.4668 26.3594 17.4668H27.2187C27.349 17.4668 27.4792 17.2969 27.4896 17.1328L28.3333 11.2031V11.1855ZM23.6458 14.2207C23.0104 14.2207 22.5156 14.7891 22.5156 15.5098C22.5156 16.0781 22.8802 16.3887 23.3594 16.3887C23.9844 16.3887 24.4896 15.8496 24.4896 15.1289C24.4948 14.5547 24.1302 14.2207 23.6458 14.2207Z" fill="#F2F2F2"/>
</svg>
