<svg width="30" height="30" viewBox="0 0 30 30" fill="none" xmlns="http://www.w3.org/2000/svg">
<path d="M24.4844 13.5527C24.4844 13.5527 24.8802 15.7324 24.9688 16.1895H23.2292C23.401 15.668 24.0625 13.6406 24.0625 13.6406C24.0521 13.6582 24.2344 13.1074 24.3385 12.7676L24.4844 13.5527ZM30 4.6875V25.3125C30 26.8652 28.8802 28.125 27.5 28.125H2.5C1.11979 28.125 0 26.8652 0 25.3125V4.6875C0 3.13477 1.11979 1.875 2.5 1.875H27.5C28.8802 1.875 30 3.13477 30 4.6875ZM7.94271 19.4062L11.2344 10.3125H9.02083L6.97396 16.5234L6.75 15.2637L6.02083 11.0801C5.90104 10.5 5.53125 10.3359 5.07292 10.3125H1.70312L1.66667 10.4941C2.48958 10.7285 3.22396 11.0684 3.86458 11.4961L5.72917 19.4062H7.94271ZM12.8594 19.418L14.1719 10.3125H12.0781L10.7708 19.418H12.8594ZM20.1458 16.4414C20.1562 15.4043 19.5938 14.6133 18.3906 13.9629C17.6562 13.5469 17.2083 13.2656 17.2083 12.8379C17.2188 12.4512 17.5885 12.0527 18.4115 12.0527C19.0938 12.0352 19.5938 12.2168 19.9688 12.3984L20.1562 12.498L20.4427 10.5293C20.0312 10.3477 19.375 10.1426 18.5677 10.1426C16.5 10.1426 15.0469 11.3848 15.0365 13.1543C15.0208 14.4609 16.0781 15.1875 16.8698 15.627C17.6771 16.0723 17.9531 16.3652 17.9531 16.7578C17.9427 17.3672 17.2969 17.6484 16.6979 17.6484C15.8646 17.6484 15.4167 17.502 14.7344 17.1621L14.4583 17.0156L14.1667 19.0605C14.6562 19.3125 15.5625 19.5352 16.5 19.5469C18.6979 19.5527 20.1302 18.3281 20.1458 16.4414ZM27.5 19.418L25.8125 10.3125H24.1927C23.6927 10.3125 23.3125 10.4766 23.099 11.0684L19.9896 19.418H22.1875C22.1875 19.418 22.5469 18.293 22.625 18.0527H25.3125C25.375 18.375 25.5625 19.418 25.5625 19.418H27.5Z" fill="#F2F2F2"/>
</svg>
